<svg width="108" height="108" viewBox="0 0 108 108" fill="none" xmlns="http://www.w3.org/2000/svg">
<path d="M1.57026 1.10176e-05C1.262 1.10176e-05 0.960685 0.0914418 0.704375 0.262735C0.448065 0.434029 0.248289 0.677494 0.130323 0.962345C0.0123563 1.2472 -0.0184963 1.56063 0.0416424 1.86303C0.101781 2.16542 0.250218 2.44319 0.468191 2.66121C0.686165 2.87922 0.963869 3.0277 1.26621 3.08785C1.56854 3.148 1.88193 3.11712 2.16673 2.99913C2.45152 2.88114 2.69493 2.68134 2.86619 2.42498C3.03745 2.16862 3.12888 1.86722 3.12888 1.5589C3.12966 1.35397 3.08986 1.15091 3.01181 0.961427C2.93375 0.771945 2.81896 0.599785 2.67408 0.454874C2.5292 0.309964 2.3571 0.195169 2.16765 0.117101C1.97821 0.0390327 1.77516 -0.000760867 1.57026 1.10176e-05ZM1.57026 25.9816C1.26035 25.9804 0.957086 26.0714 0.698924 26.2429C0.440762 26.4144 0.239371 26.6587 0.12024 26.9448C0.00110865 27.231 -0.0303641 27.5461 0.0298136 27.8501C0.0899914 28.1542 0.239075 28.4336 0.458215 28.6527C0.677356 28.8719 0.956671 29.0211 1.26068 29.0813C1.5647 29.1415 1.87974 29.11 2.16584 28.9908C2.45194 28.8717 2.6962 28.6702 2.86765 28.412C3.03911 28.1538 3.13004 27.8505 3.12888 27.5405C3.12888 27.127 2.96466 26.7305 2.67237 26.4382C2.38008 26.1458 1.98363 25.9816 1.57026 25.9816ZM1.57026 51.969C1.262 51.969 0.960685 52.0604 0.704375 52.2317C0.448065 52.403 0.248289 52.6465 0.130323 52.9313C0.0123563 53.2162 -0.0184963 53.5296 0.0416424 53.832C0.101781 54.1344 0.250218 54.4122 0.468191 54.6302C0.686165 54.8482 0.963869 54.9967 1.26621 55.0568C1.56854 55.117 1.88193 55.0861 2.16673 54.9681C2.45152 54.8501 2.69493 54.6503 2.86619 54.394C3.03745 54.1376 3.12888 53.8362 3.12888 53.5279C3.12966 53.323 3.08986 53.1199 3.01181 52.9304C2.93375 52.7409 2.81896 52.5688 2.67408 52.4239C2.5292 52.279 2.3571 52.1642 2.16765 52.0861C1.97821 52.008 1.77516 51.9682 1.57026 51.969ZM1.57026 77.9506C1.2606 77.9494 0.957566 78.0402 0.69953 78.2114C0.441493 78.3827 0.240078 78.6266 0.120774 78.9125C0.00147035 79.1983 -0.0303527 79.5131 0.0293505 79.817C0.0890536 80.1209 0.237593 80.4002 0.456149 80.6197C0.674704 80.8391 0.953457 80.9887 1.25709 81.0495C1.56071 81.1104 1.87557 81.0797 2.16177 80.9615C2.44798 80.8432 2.69264 80.6427 2.8648 80.3852C3.03696 80.1278 3.12888 79.825 3.12888 79.5153C3.12965 79.3101 3.0899 79.1068 3.01191 78.917C2.93393 78.7271 2.81924 78.5546 2.67444 78.4092C2.52963 78.2638 2.35756 78.1485 2.16808 78.0698C1.9786 77.9911 1.77543 77.9506 1.57026 77.9506ZM1.57026 103.938C1.26035 103.937 0.957086 104.028 0.698924 104.199C0.440762 104.371 0.239371 104.615 0.12024 104.901C0.00110865 105.187 -0.0303641 105.502 0.0298136 105.807C0.0899914 106.111 0.239075 106.39 0.458215 106.609C0.677356 106.828 0.956671 106.977 1.26068 107.038C1.5647 107.098 1.87974 107.066 2.16584 106.947C2.45194 106.828 2.6962 106.627 2.86765 106.368C3.03911 106.11 3.13004 105.807 3.12888 105.497C3.12888 105.083 2.96466 104.687 2.67237 104.395C2.38008 104.102 1.98363 103.938 1.57026 103.938ZM27.5469 1.10176e-05C27.2388 0.00116484 26.9381 0.093575 26.6826 0.265568C26.427 0.437562 26.2281 0.681421 26.1111 0.966372C25.994 1.25132 25.964 1.56458 26.0248 1.86659C26.0856 2.1686 26.2345 2.44582 26.4527 2.66326C26.6709 2.88069 26.9486 3.02858 27.2508 3.08826C27.553 3.14793 27.866 3.11673 28.1505 2.99857C28.4349 2.88041 28.678 2.6806 28.849 2.42437C29.02 2.16814 29.1113 1.86698 29.1113 1.5589C29.1113 1.3537 29.0708 1.15051 28.9921 0.960991C28.9134 0.771475 28.7981 0.59936 28.6527 0.454527C28.5074 0.309694 28.3349 0.194992 28.1451 0.116994C27.9553 0.0389966 27.752 -0.000757556 27.5469 1.10176e-05ZM27.5469 25.9816C27.2372 25.9816 26.9345 26.0735 26.6771 26.2457C26.4197 26.4179 26.2192 26.6626 26.101 26.9489C25.9827 27.2351 25.9521 27.5501 26.0129 27.8537C26.0738 28.1574 26.2233 28.4362 26.4427 28.6548C26.6621 28.8734 26.9414 29.022 27.2453 29.0817C27.5491 29.1414 27.8639 29.1096 28.1496 28.9903C28.4354 28.8709 28.6793 28.6695 28.8505 28.4114C29.0217 28.1533 29.1125 27.8502 29.1113 27.5405C29.1098 27.1265 28.9442 26.73 28.651 26.4378C28.3578 26.1456 27.9608 25.9816 27.5469 25.9816ZM27.5469 51.969C27.2388 51.9701 26.9381 52.0626 26.6826 52.2346C26.427 52.4066 26.2281 52.6504 26.1111 52.9354C25.994 53.2203 25.964 53.5336 26.0248 53.8356C26.0856 54.1376 26.2345 54.4148 26.4527 54.6323C26.6709 54.8497 26.9486 54.9976 27.2508 55.0572C27.553 55.1169 27.866 55.0857 28.1505 54.9676C28.4349 54.8494 28.678 54.6496 28.849 54.3934C29.02 54.1371 29.1113 53.836 29.1113 53.5279C29.1113 53.3227 29.0708 53.1195 28.9921 52.93C28.9134 52.7405 28.7981 52.5683 28.6527 52.4235C28.5074 52.2787 28.3349 52.164 28.1451 52.086C27.9553 52.008 27.752 51.9682 27.5469 51.969ZM27.5469 77.9506C27.2374 77.9506 26.935 78.0423 26.6777 78.2143C26.4205 78.3862 26.2199 78.6306 26.1015 78.9165C25.9831 79.2024 25.9521 79.5171 26.0125 79.8206C26.0729 80.1241 26.2219 80.4029 26.4406 80.6217C26.6594 80.8406 26.9382 80.9896 27.2417 81.05C27.5451 81.1104 27.8597 81.0794 28.1456 80.9609C28.4314 80.8425 28.6758 80.642 28.8477 80.3846C29.0196 80.1273 29.1113 79.8248 29.1113 79.5153C29.1113 79.1003 28.9465 78.7023 28.6531 78.4089C28.3597 78.1154 27.9618 77.9506 27.5469 77.9506ZM27.5469 103.938C27.2372 103.938 26.9345 104.03 26.6771 104.202C26.4197 104.374 26.2192 104.619 26.101 104.905C25.9827 105.192 25.9521 105.506 26.0129 105.81C26.0738 106.114 26.2233 106.393 26.4427 106.611C26.6621 106.83 26.9414 106.978 27.2453 107.038C27.5491 107.098 27.8639 107.066 28.1496 106.947C28.4354 106.827 28.6793 106.626 28.8505 106.368C29.0217 106.11 29.1125 105.807 29.1113 105.497C29.1098 105.083 28.9442 104.686 28.651 104.394C28.3578 104.102 27.9608 103.938 27.5469 103.938ZM53.5293 1.10176e-05C53.221 1.10176e-05 52.9197 0.0914418 52.6634 0.262735C52.4071 0.434029 52.2073 0.677494 52.0893 0.962345C51.9714 1.2472 51.9405 1.56063 52.0007 1.86303C52.0608 2.16542 52.2092 2.44319 52.4272 2.66121C52.6452 2.87922 52.9229 3.0277 53.2252 3.08785C53.5276 3.148 53.8409 3.11712 54.1257 2.99913C54.4105 2.88114 54.6539 2.68134 54.8252 2.42498C54.9965 2.16862 55.0879 1.86722 55.0879 1.5589C55.0887 1.35397 55.0489 1.15091 54.9708 0.961427C54.8928 0.771945 54.778 0.599785 54.6331 0.454874C54.4882 0.309964 54.3161 0.195169 54.1266 0.117101C53.9372 0.0390327 53.7342 -0.000760867 53.5293 1.10176e-05ZM53.5293 25.9816C53.2194 25.9804 52.9161 26.0714 52.6579 26.2429C52.3998 26.4144 52.1983 26.6587 52.0792 26.9448C51.9601 27.231 51.9286 27.5461 51.9888 27.8501C52.049 28.1542 52.1981 28.4336 52.4172 28.6527C52.6364 28.8719 52.9157 29.0211 53.2197 29.0813C53.5237 29.1415 53.8387 29.11 54.1248 28.9908C54.4109 28.8717 54.6552 28.6702 54.8267 28.412C54.9981 28.1538 55.0891 27.8505 55.0879 27.5405C55.0879 27.127 54.9237 26.7305 54.6314 26.4382C54.3391 26.1458 53.9426 25.9816 53.5293 25.9816ZM53.5293 51.969C53.221 51.969 52.9197 52.0604 52.6634 52.2317C52.4071 52.403 52.2073 52.6465 52.0893 52.9313C51.9714 53.2162 51.9405 53.5296 52.0007 53.832C52.0608 54.1344 52.2092 54.4122 52.4272 54.6302C52.6452 54.8482 52.9229 54.9967 53.2252 55.0568C53.5276 55.117 53.8409 55.0861 54.1257 54.9681C54.4105 54.8501 54.6539 54.6503 54.8252 54.394C54.9965 54.1376 55.0879 53.8362 55.0879 53.5279C55.0887 53.323 55.0489 53.1199 54.9708 52.9304C54.8928 52.7409 54.778 52.5688 54.6331 52.4239C54.4882 52.279 54.3161 52.1642 54.1266 52.0861C53.9372 52.008 53.7342 51.9682 53.5293 51.969ZM53.5293 77.9506C53.2196 77.9494 52.9166 78.0402 52.6585 78.2114C52.4005 78.3827 52.1991 78.6266 52.0798 78.9125C51.9605 79.1983 51.9287 79.5131 51.9884 79.817C52.0481 80.1209 52.1966 80.4002 52.4152 80.6197C52.6337 80.8391 52.9125 80.9887 53.2161 81.0495C53.5197 81.1104 53.8346 81.0797 54.1208 80.9615C54.407 80.8432 54.6517 80.6427 54.8238 80.3852C54.996 80.1278 55.0879 79.825 55.0879 79.5153C55.0887 79.3101 55.0489 79.1068 54.9709 78.917C54.8929 78.7271 54.7783 78.5546 54.6334 78.4092C54.4886 78.2638 54.3166 78.1485 54.1271 78.0698C53.9376 77.9911 53.7344 77.9506 53.5293 77.9506ZM53.5293 103.938C53.2194 103.937 52.9161 104.028 52.6579 104.199C52.3998 104.371 52.1983 104.615 52.0792 104.901C51.9601 105.187 51.9286 105.502 51.9888 105.807C52.049 106.111 52.1981 106.39 52.4172 106.609C52.6364 106.828 52.9157 106.977 53.2197 107.038C53.5237 107.098 53.8387 107.066 54.1248 106.947C54.4109 106.828 54.6552 106.627 54.8267 106.368C54.9981 106.11 55.0891 105.807 55.0879 105.497C55.0879 105.083 54.9237 104.687 54.6314 104.395C54.3391 104.102 53.9426 103.938 53.5293 103.938ZM79.5117 1.10176e-05C79.2034 1.10176e-05 78.9021 0.0914418 78.6458 0.262735C78.3895 0.434029 78.1897 0.677494 78.0718 0.962345C77.9538 1.2472 77.9229 1.56063 77.983 1.86303C78.0432 2.16542 78.1917 2.44319 78.4096 2.66121C78.6276 2.87922 78.9053 3.0277 79.2076 3.08785C79.51 3.148 79.8234 3.11712 80.1082 2.99913C80.393 2.88114 80.6364 2.68134 80.8076 2.42498C80.9789 2.16862 81.0703 1.86722 81.0703 1.5589C81.0703 1.14546 80.9061 0.748952 80.6138 0.456603C80.3215 0.164253 79.9251 1.10176e-05 79.5117 1.10176e-05ZM79.5117 25.9816C79.2018 25.9804 78.8985 26.0714 78.6404 26.2429C78.3822 26.4144 78.1808 26.6587 78.0616 26.9448C77.9425 27.231 77.911 27.5461 77.9712 27.8501C78.0314 28.1542 78.1805 28.4336 78.3997 28.6527C78.6188 28.8719 78.8981 29.0211 79.2021 29.0813C79.5061 29.1415 79.8211 29.11 80.1072 28.9908C80.3933 28.8717 80.6376 28.6702 80.8091 28.412C80.9805 28.1538 81.0714 27.8505 81.0703 27.5405C81.0687 27.1275 80.9041 26.7319 80.6121 26.4399C80.3201 26.1479 79.9246 25.9831 79.5117 25.9816ZM79.5117 51.969C79.2034 51.969 78.9021 52.0604 78.6458 52.2317C78.3895 52.403 78.1897 52.6465 78.0718 52.9313C77.9538 53.2162 77.9229 53.5296 77.983 53.832C78.0432 54.1344 78.1917 54.4122 78.4096 54.6302C78.6276 54.8482 78.9053 54.9967 79.2076 55.0568C79.51 55.117 79.8234 55.0861 80.1082 54.9681C80.393 54.8501 80.6364 54.6503 80.8076 54.394C80.9789 54.1376 81.0703 53.8362 81.0703 53.5279C81.0703 53.3232 81.03 53.1205 80.9516 52.9313C80.8733 52.7422 80.7585 52.5704 80.6138 52.4256C80.4691 52.2808 80.2973 52.166 80.1082 52.0877C79.9191 52.0093 79.7164 51.969 79.5117 51.969ZM79.5117 77.9506C79.202 77.9494 78.899 78.0402 78.641 78.2114C78.3829 78.3827 78.1815 78.6266 78.0622 78.9125C77.9429 79.1983 77.9111 79.5131 77.9708 79.817C78.0305 80.1209 78.179 80.4002 78.3976 80.6197C78.6161 80.8391 78.8949 80.9887 79.1985 81.0495C79.5022 81.1104 79.817 81.0797 80.1032 80.9615C80.3894 80.8432 80.6341 80.6427 80.8062 80.3852C80.9784 80.1278 81.0703 79.825 81.0703 79.5153C81.0703 79.1013 80.9063 78.7042 80.6142 78.4109C80.322 78.1177 79.9256 77.9521 79.5117 77.9506ZM79.5117 103.938C79.2018 103.937 78.8985 104.028 78.6404 104.199C78.3822 104.371 78.1808 104.615 78.0616 104.901C77.9425 105.187 77.911 105.502 77.9712 105.807C78.0314 106.111 78.1805 106.39 78.3997 106.609C78.6188 106.828 78.8981 106.977 79.2021 107.038C79.5061 107.098 79.8211 107.066 80.1072 106.947C80.3933 106.828 80.6376 106.627 80.8091 106.368C80.9805 106.11 81.0714 105.807 81.0703 105.497C81.0687 105.084 80.9041 104.688 80.6121 104.396C80.3201 104.104 79.9246 103.94 79.5117 103.938ZM105.488 1.10176e-05C105.18 0.00116484 104.88 0.093575 104.624 0.265568C104.368 0.437562 104.17 0.681421 104.053 0.966372C103.935 1.25132 103.905 1.56458 103.966 1.86659C104.027 2.1686 104.176 2.44582 104.394 2.66326C104.612 2.88069 104.89 3.02858 105.192 3.08826C105.494 3.14793 105.807 3.11673 106.092 2.99857C106.376 2.88041 106.619 2.6806 106.79 2.42437C106.961 2.16814 107.053 1.86698 107.053 1.5589C107.053 1.3537 107.012 1.15051 106.934 0.960991C106.855 0.771475 106.74 0.59936 106.594 0.454527C106.449 0.309694 106.276 0.194992 106.087 0.116994C105.897 0.0389966 105.693 -0.000757556 105.488 1.10176e-05ZM105.488 25.9816C105.179 25.9816 104.876 26.0735 104.619 26.2457C104.361 26.4179 104.161 26.6626 104.042 26.9489C103.924 27.2351 103.894 27.5501 103.954 27.8537C104.015 28.1574 104.165 28.4362 104.384 28.6548C104.604 28.8734 104.883 29.022 105.187 29.0817C105.491 29.1414 105.805 29.1096 106.091 28.9903C106.377 28.8709 106.621 28.6695 106.792 28.4114C106.963 28.1533 107.054 27.8502 107.053 27.5405C107.051 27.1265 106.886 26.73 106.592 26.4378C106.299 26.1456 105.902 25.9816 105.488 25.9816ZM105.488 51.969C105.18 51.9701 104.88 52.0626 104.624 52.2346C104.368 52.4066 104.17 52.6504 104.053 52.9354C103.935 53.2203 103.905 53.5336 103.966 53.8356C104.027 54.1376 104.176 54.4148 104.394 54.6323C104.612 54.8497 104.89 54.9976 105.192 55.0572C105.494 55.1169 105.807 55.0857 106.092 54.9676C106.376 54.8494 106.619 54.6496 106.79 54.3934C106.961 54.1371 107.053 53.836 107.053 53.5279C107.053 53.3227 107.012 53.1195 106.934 52.93C106.855 52.7405 106.74 52.5683 106.594 52.4235C106.449 52.2787 106.276 52.164 106.087 52.086C105.897 52.008 105.693 51.9682 105.488 51.969ZM105.488 77.9506C105.179 77.9506 104.876 78.0423 104.619 78.2143C104.362 78.3862 104.161 78.6306 104.043 78.9165C103.925 79.2024 103.894 79.5171 103.954 79.8206C104.014 80.1241 104.163 80.4029 104.382 80.6217C104.601 80.8406 104.88 80.9896 105.183 81.05C105.487 81.1104 105.801 81.0794 106.087 80.9609C106.373 80.8425 106.617 80.642 106.789 80.3846C106.961 80.1273 107.053 79.8248 107.053 79.5153C107.053 79.1003 106.888 78.7023 106.595 78.4089C106.301 78.1154 105.903 77.9506 105.488 77.9506ZM105.488 103.938C105.179 103.938 104.876 104.03 104.619 104.202C104.361 104.374 104.161 104.619 104.042 104.905C103.924 105.192 103.894 105.506 103.954 105.81C104.015 106.114 104.165 106.393 104.384 106.611C104.604 106.83 104.883 106.978 105.187 107.038C105.491 107.098 105.805 107.066 106.091 106.947C106.377 106.827 106.621 106.626 106.792 106.368C106.963 106.11 107.054 105.807 107.053 105.497C107.051 105.083 106.886 104.686 106.592 104.394C106.299 104.102 105.902 103.938 105.488 103.938Z" fill="#FC440F"/>
</svg>
