<svg width="29" height="55" viewBox="0 0 29 55" fill="none" xmlns="http://www.w3.org/2000/svg">
<path d="M14.4078 47.78C14.7447 46.7996 15.8196 46.0788 17.0494 46.5115L26.3963 49.7998C27.3802 50.1459 28.1114 51.2273 27.6901 52.4528C27.2689 53.6783 26.2783 54.154 25.0485 53.7213L15.7016 50.433C14.7177 50.0869 14.0708 48.7604 14.4078 47.78Z" fill="white"/>
<path d="M0.44372 19.6413C0.437194 19.3546 0.424247 18.7813 0.704622 18.4917L10.6414 1.1875C11.1891 0.0350574 12.6171 -0.266175 13.4908 0.298352C14.6515 0.859956 14.971 2.29028 14.4167 3.15607L4.47995 20.4603C3.93226 21.6127 2.50429 21.9139 1.63054 21.3494C0.763315 21.0715 0.463296 20.5012 0.44372 19.6413Z" fill="#825AFF"/>
</svg>
