<svg width="155" height="165" viewBox="0 0 155 165" fill="none" xmlns="http://www.w3.org/2000/svg">
<path d="M123.096 59.2744C123.217 59.0185 123.468 58.8244 123.658 58.7584L145.579 48.6991C146.149 48.5009 146.665 48.7486 147.059 49.2523C147.264 49.822 147.02 50.3339 146.519 50.722L124.598 60.7812C124.028 60.9794 123.499 60.7383 123.117 60.2281C122.92 59.9763 122.974 59.5304 123.096 59.2744Z" fill="white"/>
<path d="M116.281 88.7736L122.435 99.4188C122.721 99.914 122.639 100.627 122.024 100.989C121.41 101.351 120.826 101.197 120.468 100.578L114.314 89.9331C114.028 89.4379 114.11 88.7254 114.725 88.363C115.339 88.0007 115.994 88.2785 116.281 88.7736Z" fill="#825AFF"/>
<path d="M78.8676 76.1545C67.9003 79.9493 55.95 74.1431 52.1551 63.1759C48.3602 52.2086 52.6868 40.7703 65.1337 36.4634C76.101 32.6685 88.0513 38.4748 91.8462 49.4421C95.641 60.4093 89.8348 72.3596 78.8676 76.1545Z" fill="#46D7D7"/>
<path d="M76.0887 43.5023L94.948 26.1019L71.4003 20.6146L76.0887 43.5023Z" fill="#825AFF"/>
<path d="M37.3691 123.949L49.7615 109.69L64.0628 121.865L51.6703 136.123L37.3691 123.949ZM49.9929 114.162L41.6883 123.755L51.31 131.913L59.6146 122.32L49.9929 114.162Z" fill="white"/>
</svg>
