<svg width="251" height="120" viewBox="0 0 251 120" fill="none" xmlns="http://www.w3.org/2000/svg">
<path d="M130.682 66.5139C139.523 66.5139 146.691 59.3406 146.691 50.4919C146.691 41.6432 139.523 34.4699 130.682 34.4699C121.841 34.4699 114.674 41.6432 114.674 50.4919C114.674 59.3406 121.841 66.5139 130.682 66.5139Z" fill="#0A0B0D"/>
<path d="M130.682 67.4293C121.306 67.4293 113.76 59.8761 113.76 50.4918C113.76 41.1075 121.306 33.5543 130.682 33.5543C140.059 33.5543 147.605 41.1075 147.605 50.4918C147.605 59.8761 140.059 67.4293 130.682 67.4293ZM130.682 35.3853C122.335 35.3853 115.475 42.252 115.475 50.6063C115.475 58.9606 122.335 65.8272 130.682 65.8272C139.029 65.8272 145.89 58.9606 145.89 50.6063C145.89 42.252 139.144 35.3853 130.682 35.3853Z" fill="white"/>
<path d="M85.3701 26.093C85.3701 40.5128 73.7071 52.186 59.2998 52.186C44.8925 52.186 33.2294 42.4583 33.2294 26.093C33.2294 11.6732 44.8925 0 59.2998 0C73.7071 0 85.3701 11.6732 85.3701 26.093Z" fill="#FC440F"/>
<path d="M23.1932 99.3732L1.67949 98.6665L12.5189 115.81L23.1932 99.3732Z" fill="#825AFF"/>
<path d="M-4.14394e-06 97.6839L24.7423 98.5631L12.3897 117.536L-4.14394e-06 97.6839ZM21.5264 100.208L3.33465 99.533L12.5305 114.108L21.5264 100.208Z" fill="#825AFF"/>
<path d="M242.556 21.2343L231.247 27.8411L237.776 39.2841L249.085 32.6773L242.556 21.2343Z" fill="#0A0B0D"/>
<path d="M237.426 41.0265L229.522 27.2914L243.096 19.2937L251 33.0289L237.426 41.0265ZM233.13 28.3346L238.457 37.5493L247.563 32.1596L242.237 22.9449L233.13 28.3346Z" fill="white"/>
</svg>
