<svg width="168" height="148" viewBox="0 0 168 148" fill="none" xmlns="http://www.w3.org/2000/svg">
<path d="M51.656 77.7102L33.7457 134C33.7457 134 3.85009 119.312 14.48 92.9562C25.2987 67.0696 51.656 77.7102 51.656 77.7102Z" fill="#825AFF"/>
<path d="M40.0682 36.1782L54.5547 42.3342L41.0956 52.5588L40.0682 36.1782Z" fill="#46D7D7"/>
<g opacity="0.3">
<path d="M104.031 53.2261C101.369 40.1377 107.347 30.9793 120.4 28.1495C131.665 25.7073 142.86 33.0148 145.158 44.3103C147.456 55.6058 140.055 66.9448 128.789 69.387C117.524 71.8291 106.329 64.5216 104.031 53.2261ZM142.476 44.8918C140.47 35.0306 130.782 28.7068 120.947 30.8389C105.391 34.2114 105.364 46.0108 106.713 52.6447C108.72 62.5058 118.408 68.8296 128.242 66.6976C138.077 64.5655 144.482 54.7529 142.476 44.8918Z" fill="white"/>
<path d="M114.518 43.2788C114.445 42.9202 114.551 42.5229 114.693 42.3049C115.12 41.6507 116.014 41.4568 116.66 41.8784L134.314 53.4017C134.96 53.8233 135.142 54.7198 134.715 55.374C134.288 56.0282 133.394 56.222 132.748 55.8004L115.094 44.277C114.664 43.996 114.591 43.6374 114.518 43.2788Z" fill="white"/>
<path d="M130.217 38.5908C130.575 38.5155 130.973 38.6188 131.192 38.7597C131.849 39.1825 132.048 40.0754 131.631 40.7239L120.221 58.4508C119.803 59.0994 118.908 59.2875 118.251 58.8647C117.594 58.4418 117.394 57.549 117.812 56.9004L129.222 39.1735C129.501 38.7412 129.859 38.666 130.217 38.5908Z" fill="white"/>
</g>
</svg>
