<svg width="79" height="180" viewBox="0 0 79 180" fill="none" xmlns="http://www.w3.org/2000/svg">
<path d="M-99.2225 1.24699e-05C-99.5714 1.24699e-05 -99.9125 0.103495 -100.203 0.297368C-100.493 0.491241 -100.719 0.766798 -100.852 1.0892C-100.986 1.4116 -101.021 1.76635 -100.953 2.10861C-100.885 2.45086 -100.717 2.76524 -100.47 3.012C-100.223 3.25875 -99.9089 3.42679 -99.5667 3.49487C-99.2244 3.56295 -98.8697 3.52801 -98.5473 3.39446C-98.2249 3.26092 -97.9494 3.03478 -97.7555 2.74463C-97.5616 2.45448 -97.4581 2.11335 -97.4581 1.76439C-97.4573 1.53245 -97.5023 1.30262 -97.5907 1.08816C-97.679 0.873699 -97.809 0.678846 -97.973 0.514834C-98.137 0.350822 -98.3318 0.220896 -98.5462 0.132537C-98.7607 0.0441778 -98.9905 -0.000861162 -99.2225 1.24699e-05ZM-99.2225 29.4064C-99.5733 29.4051 -99.9166 29.508 -100.209 29.7021C-100.501 29.8962 -100.729 30.1727 -100.864 30.4966C-100.999 30.8205 -101.034 31.1771 -100.966 31.5212C-100.898 31.8654 -100.729 32.1816 -100.481 32.4296C-100.233 32.6777 -99.9171 32.8465 -99.5729 32.9146C-99.2288 32.9828 -98.8722 32.9471 -98.5483 32.8123C-98.2244 32.6774 -97.9479 32.4494 -97.7538 32.1571C-97.5598 31.8649 -97.4568 31.5216 -97.4581 31.1708C-97.4581 30.7028 -97.644 30.254 -97.9749 29.9232C-98.3058 29.5923 -98.7545 29.4064 -99.2225 29.4064ZM-99.2225 58.8193C-99.5714 58.8193 -99.9125 58.9228 -100.203 59.1167C-100.493 59.3106 -100.719 59.5861 -100.852 59.9085C-100.986 60.2309 -101.021 60.5857 -100.953 60.9279C-100.885 61.2702 -100.717 61.5846 -100.47 61.8313C-100.223 62.0781 -99.9089 62.2461 -99.5667 62.3142C-99.2244 62.3823 -98.8697 62.3473 -98.5473 62.2138C-98.2249 62.0802 -97.9494 61.8541 -97.7555 61.564C-97.5616 61.2738 -97.4581 60.9327 -97.4581 60.5837C-97.4573 60.3518 -97.5023 60.1219 -97.5907 59.9075C-97.679 59.693 -97.809 59.4982 -97.973 59.3342C-98.137 59.1702 -98.3318 59.0402 -98.5462 58.9519C-98.7607 58.8635 -98.9905 58.8185 -99.2225 58.8193ZM-99.2225 88.2257C-99.573 88.2244 -99.916 88.3271 -100.208 88.521C-100.5 88.7148 -100.728 88.9909 -100.863 89.3144C-100.998 89.6378 -101.034 89.9941 -100.967 90.3381C-100.899 90.6821 -100.731 90.9983 -100.484 91.2466C-100.236 91.4949 -99.9207 91.6643 -99.577 91.7331C-99.2333 91.802 -98.8769 91.7673 -98.5529 91.6335C-98.2289 91.4996 -97.952 91.2727 -97.7571 90.9813C-97.5622 90.6899 -97.4581 90.3472 -97.4581 89.9967C-97.4573 89.7644 -97.5023 89.5343 -97.5905 89.3195C-97.6788 89.1046 -97.8086 88.9093 -97.9726 88.7448C-98.1365 88.5803 -98.3313 88.4497 -98.5458 88.3606C-98.7602 88.2715 -98.9902 88.2257 -99.2225 88.2257ZM-99.2225 117.639C-99.5733 117.637 -99.9166 117.74 -100.209 117.934C-100.501 118.128 -100.729 118.405 -100.864 118.729C-100.999 119.053 -101.034 119.409 -100.966 119.754C-100.898 120.098 -100.729 120.414 -100.481 120.662C-100.233 120.91 -99.9171 121.079 -99.5729 121.147C-99.2288 121.215 -98.8722 121.179 -98.5483 121.045C-98.2244 120.91 -97.9479 120.682 -97.7538 120.389C-97.5598 120.097 -97.4568 119.754 -97.4581 119.403C-97.4581 118.935 -97.644 118.486 -97.9749 118.155C-98.3058 117.825 -98.7545 117.639 -99.2225 117.639ZM-99.2225 147.052C-99.5714 147.052 -99.9125 147.155 -100.203 147.349C-100.493 147.543 -100.719 147.818 -100.852 148.141C-100.986 148.463 -101.021 148.818 -100.953 149.16C-100.885 149.503 -100.717 149.817 -100.47 150.064C-100.223 150.31 -99.9089 150.478 -99.5667 150.546C-99.2244 150.615 -98.8697 150.58 -98.5473 150.446C-98.2249 150.313 -97.9494 150.086 -97.7555 149.796C-97.5616 149.506 -97.4581 149.165 -97.4581 148.816C-97.4573 148.584 -97.5023 148.354 -97.5907 148.14C-97.679 147.925 -97.809 147.73 -97.973 147.566C-98.137 147.402 -98.3318 147.273 -98.5462 147.184C-98.7607 147.096 -98.9905 147.051 -99.2225 147.052ZM-99.2225 176.458C-99.573 176.457 -99.916 176.559 -100.208 176.753C-100.5 176.947 -100.728 177.223 -100.863 177.547C-100.998 177.87 -101.034 178.226 -100.967 178.57C-100.899 178.914 -100.731 179.231 -100.484 179.479C-100.236 179.727 -99.9207 179.897 -99.577 179.965C-99.2333 180.034 -98.8769 180 -98.5529 179.866C-98.2289 179.732 -97.952 179.505 -97.7571 179.214C-97.5622 178.922 -97.4581 178.58 -97.4581 178.229C-97.4573 177.997 -97.5023 177.767 -97.5905 177.552C-97.6788 177.337 -97.8086 177.142 -97.9726 176.977C-98.1365 176.813 -98.3313 176.682 -98.5458 176.593C-98.7602 176.504 -98.9902 176.458 -99.2225 176.458ZM-69.8172 1.24699e-05C-70.1659 0.00131839 -70.5063 0.10591 -70.7956 0.300575C-71.0848 0.495239 -71.31 0.771243 -71.4425 1.09375C-71.575 1.41627 -71.609 1.77082 -71.5402 2.11264C-71.4713 2.45446 -71.3028 2.76822 -71.0558 3.01431C-70.8088 3.26041 -70.4944 3.42779 -70.1523 3.49534C-69.8103 3.56288 -69.4559 3.52756 -69.1339 3.39383C-68.8119 3.2601 -68.5367 3.03395 -68.3432 2.74394C-68.1496 2.45394 -68.0462 2.11307 -68.0462 1.76439C-68.0462 1.53213 -68.0921 1.30216 -68.1812 1.08766C-68.2703 0.873168 -68.4008 0.678365 -68.5653 0.514441C-68.7299 0.350516 -68.9252 0.220695 -69.14 0.132416C-69.3548 0.044137 -69.5849 -0.000857414 -69.8172 1.24699e-05ZM-69.8172 29.4064C-70.1677 29.4064 -70.5104 29.5104 -70.8017 29.7053C-71.0931 29.9002 -71.3201 30.1772 -71.4539 30.5012C-71.5878 30.8252 -71.6225 31.1816 -71.5536 31.5253C-71.4847 31.869 -71.3154 32.1846 -71.0671 32.432C-70.8187 32.6794 -70.5026 32.8475 -70.1586 32.9151C-69.8146 32.9827 -69.4583 32.9467 -69.1349 32.8116C-68.8114 32.6766 -68.5353 32.4486 -68.3415 32.1565C-68.1477 31.8643 -68.0449 31.5213 -68.0462 31.1708C-68.048 30.7022 -68.2354 30.2534 -68.5673 29.9227C-68.8992 29.5921 -69.3487 29.4064 -69.8172 29.4064ZM-69.8172 58.8193C-70.1659 58.8206 -70.5063 58.9252 -70.7956 59.1199C-71.0848 59.3146 -71.31 59.5906 -71.4425 59.9131C-71.575 60.2356 -71.609 60.5901 -71.5402 60.932C-71.4713 61.2738 -71.3028 61.5876 -71.0558 61.8337C-70.8088 62.0797 -70.4944 62.2471 -70.1523 62.3147C-69.8103 62.3822 -69.4559 62.3469 -69.1339 62.2132C-68.8119 62.0794 -68.5367 61.8533 -68.3432 61.5633C-68.1496 61.2733 -68.0462 60.9324 -68.0462 60.5837C-68.0462 60.3515 -68.0921 60.1215 -68.1812 59.907C-68.2703 59.6925 -68.4008 59.4977 -68.5653 59.3338C-68.7299 59.1698 -68.9252 59.04 -69.14 58.9518C-69.3548 58.8635 -69.5849 58.8185 -69.8172 58.8193ZM-69.8172 88.2257C-70.1674 88.2257 -70.5098 88.3296 -70.801 88.5242C-71.0923 88.7188 -71.3193 88.9954 -71.4533 89.319C-71.5873 89.6426 -71.6224 89.9987 -71.5541 90.3422C-71.4857 90.6857 -71.3171 91.0013 -71.0694 91.249C-70.8217 91.4966 -70.5062 91.6653 -70.1627 91.7336C-69.8191 91.802 -69.4631 91.7669 -69.1395 91.6329C-68.8159 91.4988 -68.5393 91.2718 -68.3447 90.9806C-68.1501 90.6894 -68.0462 90.3469 -68.0462 89.9967C-68.0462 89.527 -68.2328 89.0765 -68.5649 88.7444C-68.897 88.4123 -69.3475 88.2257 -69.8172 88.2257ZM-69.8172 117.639C-70.1677 117.639 -70.5104 117.743 -70.8017 117.938C-71.0931 118.132 -71.3201 118.409 -71.4539 118.733C-71.5878 119.057 -71.6225 119.414 -71.5536 119.758C-71.4847 120.101 -71.3154 120.417 -71.0671 120.664C-70.8187 120.912 -70.5026 121.08 -70.1586 121.147C-69.8146 121.215 -69.4583 121.179 -69.1349 121.044C-68.8114 120.909 -68.5353 120.681 -68.3415 120.389C-68.1477 120.097 -68.0449 119.754 -68.0462 119.403C-68.048 118.934 -68.2354 118.486 -68.5673 118.155C-68.8992 117.824 -69.3487 117.639 -69.8172 117.639ZM-69.8172 147.052C-70.1659 147.053 -70.5063 147.158 -70.7956 147.352C-71.0848 147.547 -71.31 147.823 -71.4425 148.145C-71.575 148.468 -71.609 148.822 -71.5402 149.164C-71.4713 149.506 -71.3028 149.82 -71.0558 150.066C-70.8088 150.312 -70.4944 150.479 -70.1523 150.547C-69.8103 150.615 -69.4559 150.579 -69.1339 150.445C-68.8119 150.312 -68.5367 150.086 -68.3432 149.796C-68.1496 149.506 -68.0462 149.165 -68.0462 148.816C-68.0462 148.584 -68.0921 148.354 -68.1812 148.139C-68.2703 147.925 -68.4008 147.73 -68.5653 147.566C-68.7299 147.402 -68.9252 147.272 -69.14 147.184C-69.3548 147.096 -69.5849 147.051 -69.8172 147.052ZM-69.8172 176.458C-70.1674 176.458 -70.5098 176.562 -70.801 176.757C-71.0923 176.951 -71.3193 177.228 -71.4533 177.551C-71.5873 177.875 -71.6224 178.231 -71.5541 178.574C-71.4857 178.918 -71.3171 179.234 -71.0694 179.481C-70.8217 179.729 -70.5062 179.898 -70.1627 179.966C-69.8191 180.034 -69.4631 179.999 -69.1395 179.865C-68.8159 179.731 -68.5393 179.504 -68.3447 179.213C-68.1501 178.922 -68.0462 178.579 -68.0462 178.229C-68.0462 177.759 -68.2328 177.309 -68.5649 176.977C-68.897 176.645 -69.3475 176.458 -69.8172 176.458ZM-40.4053 1.24699e-05C-40.7543 1.24699e-05 -41.0953 0.103495 -41.3855 0.297368C-41.6756 0.491241 -41.9018 0.766798 -42.0353 1.0892C-42.1688 1.4116 -42.2038 1.76635 -42.1357 2.10861C-42.0676 2.45086 -41.8996 2.76524 -41.6528 3.012C-41.4061 3.25875 -41.0917 3.42679 -40.7495 3.49487C-40.4072 3.56295 -40.0525 3.52801 -39.7301 3.39446C-39.4077 3.26092 -39.1322 3.03478 -38.9383 2.74463C-38.7445 2.45448 -38.641 2.11335 -38.641 1.76439C-38.6401 1.53245 -38.6851 1.30262 -38.7735 1.08816C-38.8618 0.873699 -38.9918 0.678846 -39.1558 0.514834C-39.3198 0.350822 -39.5147 0.220896 -39.7291 0.132537C-39.9436 0.0441778 -40.1734 -0.000861162 -40.4053 1.24699e-05ZM-40.4053 29.4064C-40.7561 29.4051 -41.0994 29.508 -41.3917 29.7021C-41.6839 29.8962 -41.9119 30.1727 -42.0468 30.4966C-42.1816 30.8205 -42.2172 31.1771 -42.1491 31.5212C-42.081 31.8654 -41.9122 32.1816 -41.6641 32.4296C-41.4161 32.6777 -41.0999 32.8465 -40.7557 32.9146C-40.4116 32.9828 -40.055 32.9471 -39.7311 32.8123C-39.4073 32.6774 -39.1308 32.4494 -38.9367 32.1571C-38.7426 31.8649 -38.6396 31.5216 -38.641 31.1708C-38.641 30.7028 -38.8269 30.254 -39.1577 29.9232C-39.4886 29.5923 -39.9374 29.4064 -40.4053 29.4064ZM-40.4053 58.8193C-40.7543 58.8193 -41.0953 58.9228 -41.3855 59.1167C-41.6756 59.3106 -41.9018 59.5861 -42.0353 59.9085C-42.1688 60.2309 -42.2038 60.5857 -42.1357 60.9279C-42.0676 61.2702 -41.8996 61.5846 -41.6528 61.8313C-41.4061 62.0781 -41.0917 62.2461 -40.7495 62.3142C-40.4072 62.3823 -40.0525 62.3473 -39.7301 62.2138C-39.4077 62.0802 -39.1322 61.8541 -38.9383 61.564C-38.7445 61.2738 -38.641 60.9327 -38.641 60.5837C-38.6401 60.3518 -38.6851 60.1219 -38.7735 59.9075C-38.8618 59.693 -38.9918 59.4982 -39.1558 59.3342C-39.3198 59.1702 -39.5147 59.0402 -39.7291 58.9519C-39.9436 58.8635 -40.1734 58.8185 -40.4053 58.8193ZM-40.4053 88.2257C-40.7558 88.2244 -41.0989 88.3271 -41.391 88.521C-41.6831 88.7148 -41.9111 88.9909 -42.0461 89.3144C-42.1812 89.6378 -42.2172 89.9941 -42.1496 90.3381C-42.082 90.6821 -41.9139 90.9983 -41.6665 91.2466C-41.4191 91.4949 -41.1035 91.6643 -40.7598 91.7331C-40.4161 91.802 -40.0597 91.7673 -39.7357 91.6335C-39.4117 91.4996 -39.1348 91.2727 -38.9399 90.9813C-38.745 90.6899 -38.641 90.3472 -38.641 89.9967C-38.6401 89.7644 -38.6851 89.5343 -38.7734 89.3195C-38.8616 89.1046 -38.9915 88.9093 -39.1554 88.7448C-39.3193 88.5803 -39.5141 88.4497 -39.7286 88.3606C-39.9431 88.2715 -40.1731 88.2257 -40.4053 88.2257ZM-40.4053 117.639C-40.7561 117.637 -41.0994 117.74 -41.3917 117.934C-41.6839 118.128 -41.9119 118.405 -42.0468 118.729C-42.1816 119.053 -42.2172 119.409 -42.1491 119.754C-42.081 120.098 -41.9122 120.414 -41.6641 120.662C-41.4161 120.91 -41.0999 121.079 -40.7557 121.147C-40.4116 121.215 -40.055 121.179 -39.7311 121.045C-39.4073 120.91 -39.1308 120.682 -38.9367 120.389C-38.7426 120.097 -38.6396 119.754 -38.641 119.403C-38.641 118.935 -38.8269 118.486 -39.1577 118.155C-39.4886 117.825 -39.9374 117.639 -40.4053 117.639ZM-40.4053 147.052C-40.7543 147.052 -41.0953 147.155 -41.3855 147.349C-41.6756 147.543 -41.9018 147.818 -42.0353 148.141C-42.1688 148.463 -42.2038 148.818 -42.1357 149.16C-42.0676 149.503 -41.8996 149.817 -41.6528 150.064C-41.4061 150.31 -41.0917 150.478 -40.7495 150.546C-40.4072 150.615 -40.0525 150.58 -39.7301 150.446C-39.4077 150.313 -39.1322 150.086 -38.9383 149.796C-38.7445 149.506 -38.641 149.165 -38.641 148.816C-38.6401 148.584 -38.6851 148.354 -38.7735 148.14C-38.8618 147.925 -38.9918 147.73 -39.1558 147.566C-39.3198 147.402 -39.5147 147.273 -39.7291 147.184C-39.9436 147.096 -40.1734 147.051 -40.4053 147.052ZM-40.4053 176.458C-40.7558 176.457 -41.0989 176.559 -41.391 176.753C-41.6831 176.947 -41.9111 177.223 -42.0461 177.547C-42.1812 177.87 -42.2172 178.226 -42.1496 178.57C-42.082 178.914 -41.9139 179.231 -41.6665 179.479C-41.4191 179.727 -41.1035 179.897 -40.7598 179.965C-40.4161 180.034 -40.0597 180 -39.7357 179.866C-39.4117 179.732 -39.1348 179.505 -38.9399 179.214C-38.745 178.922 -38.641 178.58 -38.641 178.229C-38.6401 177.997 -38.6851 177.767 -38.7734 177.552C-38.8616 177.337 -38.9915 177.142 -39.1554 176.977C-39.3193 176.813 -39.5141 176.682 -39.7286 176.593C-39.9431 176.504 -40.1731 176.458 -40.4053 176.458ZM-10.9934 1.24699e-05C-11.3424 1.24699e-05 -11.6834 0.103495 -11.9736 0.297368C-12.2637 0.491241 -12.4899 0.766798 -12.6234 1.0892C-12.7569 1.4116 -12.7919 1.76635 -12.7238 2.10861C-12.6558 2.45086 -12.4877 2.76524 -12.2409 3.012C-11.9942 3.25875 -11.6798 3.42679 -11.3376 3.49487C-10.9954 3.56295 -10.6406 3.52801 -10.3182 3.39446C-9.99583 3.26092 -9.72029 3.03478 -9.52643 2.74463C-9.33257 2.45448 -9.2291 2.11335 -9.2291 1.76439C-9.2291 1.29645 -9.41496 0.847676 -9.74583 0.51679C-10.0767 0.185904 -10.5255 1.24699e-05 -10.9934 1.24699e-05ZM-10.9934 29.4064C-11.3442 29.4051 -11.6875 29.508 -11.9798 29.7021C-12.272 29.8962 -12.5 30.1727 -12.6349 30.4966C-12.7697 30.8205 -12.8053 31.1771 -12.7372 31.5212C-12.6691 31.8654 -12.5003 32.1816 -12.2522 32.4296C-12.0042 32.6777 -11.688 32.8465 -11.3439 32.9146C-10.9998 32.9828 -10.6431 32.9471 -10.3193 32.8123C-9.99541 32.6774 -9.71886 32.4494 -9.52477 32.1571C-9.33068 31.8649 -9.2278 31.5216 -9.2291 31.1708C-9.23084 30.7033 -9.41727 30.2556 -9.74776 29.9251C-10.0783 29.5946 -10.526 29.4081 -10.9934 29.4064ZM-10.9934 58.8193C-11.3424 58.8193 -11.6834 58.9228 -11.9736 59.1167C-12.2637 59.3106 -12.4899 59.5861 -12.6234 59.9085C-12.7569 60.2309 -12.7919 60.5857 -12.7238 60.9279C-12.6558 61.2702 -12.4877 61.5846 -12.2409 61.8313C-11.9942 62.0781 -11.6798 62.2461 -11.3376 62.3142C-10.9954 62.3823 -10.6406 62.3473 -10.3182 62.2138C-9.99583 62.0802 -9.72029 61.8541 -9.52643 61.564C-9.33257 61.2738 -9.2291 60.9327 -9.2291 60.5837C-9.2291 60.352 -9.27474 60.1226 -9.36341 59.9085C-9.45208 59.6944 -9.582 59.5 -9.74583 59.3361C-9.90967 59.1723 -10.1042 59.0423 -10.3182 58.9536C-10.5323 58.865 -10.7617 58.8193 -10.9934 58.8193ZM-10.9934 88.2257C-11.3439 88.2244 -11.687 88.3271 -11.9791 88.521C-12.2712 88.7148 -12.4992 88.9909 -12.6342 89.3144C-12.7693 89.6378 -12.8053 89.9941 -12.7377 90.3381C-12.6701 90.6821 -12.502 90.9983 -12.2546 91.2466C-12.0072 91.4949 -11.6916 91.6643 -11.3479 91.7331C-11.0042 91.802 -10.6478 91.7673 -10.3238 91.6335C-9.99984 91.4996 -9.72289 91.2727 -9.528 90.9813C-9.33311 90.6899 -9.2291 90.3472 -9.2291 89.9967C-9.2291 89.5281 -9.41473 89.0787 -9.74542 88.7467C-10.0761 88.4148 -10.5249 88.2274 -10.9934 88.2257ZM-10.9934 117.639C-11.3442 117.637 -11.6875 117.74 -11.9798 117.934C-12.272 118.128 -12.5 118.405 -12.6349 118.729C-12.7697 119.053 -12.8053 119.409 -12.7372 119.754C-12.6691 120.098 -12.5003 120.414 -12.2522 120.662C-12.0042 120.91 -11.688 121.079 -11.3439 121.147C-10.9998 121.215 -10.6431 121.179 -10.3193 121.045C-9.99541 120.91 -9.71886 120.682 -9.52477 120.389C-9.33068 120.097 -9.2278 119.754 -9.2291 119.403C-9.23084 118.936 -9.41727 118.488 -9.74776 118.157C-10.0783 117.827 -10.526 117.64 -10.9934 117.639ZM-10.9934 147.052C-11.3424 147.052 -11.6834 147.155 -11.9736 147.349C-12.2637 147.543 -12.4899 147.818 -12.6234 148.141C-12.7569 148.463 -12.7919 148.818 -12.7238 149.16C-12.6558 149.503 -12.4877 149.817 -12.2409 150.064C-11.9942 150.31 -11.6798 150.478 -11.3376 150.546C-10.9954 150.615 -10.6406 150.58 -10.3182 150.446C-9.99583 150.313 -9.72029 150.086 -9.52643 149.796C-9.33257 149.506 -9.2291 149.165 -9.2291 148.816C-9.2291 148.348 -9.41496 147.899 -9.74583 147.568C-10.0767 147.238 -10.5255 147.052 -10.9934 147.052ZM-10.9934 176.458C-11.3439 176.457 -11.687 176.559 -11.9791 176.753C-12.2712 176.947 -12.4992 177.223 -12.6342 177.547C-12.7693 177.87 -12.8053 178.226 -12.7377 178.57C-12.6701 178.914 -12.502 179.231 -12.2546 179.479C-12.0072 179.727 -11.6916 179.897 -11.3479 179.965C-11.0042 180.034 -10.6478 180 -10.3238 179.866C-9.99984 179.732 -9.72289 179.505 -9.528 179.214C-9.33311 178.922 -9.2291 178.58 -9.2291 178.229C-9.2291 177.76 -9.41473 177.311 -9.74542 176.979C-10.0761 176.647 -10.5249 176.46 -10.9934 176.458ZM18.4119 1.24699e-05C18.0632 0.00131839 17.7227 0.10591 17.4335 0.300575C17.1442 0.495239 16.9191 0.771243 16.7866 1.09375C16.6541 1.41627 16.62 1.77082 16.6889 2.11264C16.7577 2.45446 16.9262 2.76822 17.1732 3.01431C17.4202 3.26041 17.7346 3.42779 18.0767 3.49534C18.4188 3.56288 18.7732 3.52756 19.0952 3.39383C19.4172 3.2601 19.6923 3.03395 19.8859 2.74394C20.0795 2.45394 20.1828 2.11307 20.1828 1.76439C20.1828 1.53213 20.137 1.30216 20.0479 1.08766C19.9588 0.873168 19.8283 0.678365 19.6637 0.514441C19.4992 0.350516 19.3039 0.220695 19.0891 0.132416C18.8743 0.044137 18.6441 -0.000857414 18.4119 1.24699e-05ZM18.4119 29.4064C18.0613 29.4064 17.7187 29.5104 17.4273 29.7053C17.136 29.9002 16.909 30.1772 16.7751 30.5012C16.6413 30.8252 16.6066 31.1816 16.6755 31.5253C16.7443 31.869 16.9137 32.1846 17.162 32.432C17.4103 32.6794 17.7265 32.8475 18.0705 32.9151C18.4144 32.9827 18.7707 32.9467 19.0942 32.8116C19.4176 32.6766 19.6938 32.4486 19.8876 32.1565C20.0814 31.8643 20.1841 31.5213 20.1828 31.1708C20.181 30.7022 19.9937 30.2534 19.6618 29.9227C19.3299 29.5921 18.8804 29.4064 18.4119 29.4064ZM18.4119 58.8193C18.0632 58.8206 17.7227 58.9252 17.4335 59.1199C17.1442 59.3146 16.9191 59.5906 16.7866 59.9131C16.6541 60.2356 16.62 60.5901 16.6889 60.932C16.7577 61.2738 16.9262 61.5876 17.1732 61.8337C17.4202 62.0797 17.7346 62.2471 18.0767 62.3147C18.4188 62.3822 18.7732 62.3469 19.0952 62.2132C19.4172 62.0794 19.6923 61.8533 19.8859 61.5633C20.0795 61.2733 20.1828 60.9324 20.1828 60.5837C20.1828 60.3515 20.137 60.1215 20.0479 59.907C19.9588 59.6925 19.8283 59.4977 19.6637 59.3338C19.4992 59.1698 19.3039 59.04 19.0891 58.9518C18.8743 58.8635 18.6441 58.8185 18.4119 58.8193ZM18.4119 88.2257C18.0616 88.2257 17.7192 88.3296 17.428 88.5242C17.1368 88.7188 16.9098 88.9954 16.7757 89.319C16.6417 89.6426 16.6067 89.9987 16.675 90.3422C16.7433 90.6857 16.912 91.0013 17.1597 91.249C17.4073 91.4966 17.7229 91.6653 18.0664 91.7336C18.4099 91.802 18.766 91.7669 19.0896 91.6329C19.4132 91.4988 19.6897 91.2718 19.8843 90.9806C20.0789 90.6894 20.1828 90.3469 20.1828 89.9967C20.1828 89.527 19.9962 89.0765 19.6641 88.7444C19.332 88.4123 18.8816 88.2257 18.4119 88.2257ZM18.4119 117.639C18.0613 117.639 17.7187 117.743 17.4273 117.938C17.136 118.132 16.909 118.409 16.7751 118.733C16.6413 119.057 16.6066 119.414 16.6755 119.758C16.7443 120.101 16.9137 120.417 17.162 120.664C17.4103 120.912 17.7265 121.08 18.0705 121.147C18.4144 121.215 18.7707 121.179 19.0942 121.044C19.4176 120.909 19.6938 120.681 19.8876 120.389C20.0814 120.097 20.1841 119.754 20.1828 119.403C20.181 118.934 19.9937 118.486 19.6618 118.155C19.3299 117.824 18.8804 117.639 18.4119 117.639ZM18.4119 147.052C18.0632 147.053 17.7227 147.158 17.4335 147.352C17.1442 147.547 16.9191 147.823 16.7866 148.145C16.6541 148.468 16.62 148.822 16.6889 149.164C16.7577 149.506 16.9262 149.82 17.1732 150.066C17.4202 150.312 17.7346 150.479 18.0767 150.547C18.4188 150.615 18.7732 150.579 19.0952 150.445C19.4172 150.312 19.6923 150.086 19.8859 149.796C20.0795 149.506 20.1828 149.165 20.1828 148.816C20.1828 148.584 20.137 148.354 20.0479 148.139C19.9588 147.925 19.8283 147.73 19.6637 147.566C19.4992 147.402 19.3039 147.272 19.0891 147.184C18.8743 147.096 18.6441 147.051 18.4119 147.052ZM18.4119 176.458C18.0616 176.458 17.7192 176.562 17.428 176.757C17.1368 176.951 16.9098 177.228 16.7757 177.551C16.6417 177.875 16.6067 178.231 16.675 178.574C16.7433 178.918 16.912 179.234 17.1597 179.481C17.4073 179.729 17.7229 179.898 18.0664 179.966C18.4099 180.034 18.766 179.999 19.0896 179.865C19.4132 179.731 19.6897 179.504 19.8843 179.213C20.0789 178.922 20.1828 178.579 20.1828 178.229C20.1828 177.759 19.9962 177.309 19.6641 176.977C19.332 176.645 18.8816 176.458 18.4119 176.458ZM47.8237 1.24699e-05C47.4748 1.24699e-05 47.1337 0.103495 46.8435 0.297368C46.5534 0.491241 46.3273 0.766798 46.1938 1.0892C46.0602 1.4116 46.0253 1.76635 46.0933 2.10861C46.1614 2.45086 46.3295 2.76524 46.5762 3.012C46.823 3.25875 47.1373 3.42679 47.4795 3.49487C47.8218 3.56295 48.1766 3.52801 48.4989 3.39446C48.8213 3.26092 49.0969 3.03478 49.2907 2.74463C49.4846 2.45448 49.5881 2.11335 49.5881 1.76439C49.5889 1.53245 49.5439 1.30262 49.4555 1.08816C49.3672 0.873699 49.2373 0.678846 49.0733 0.514834C48.9093 0.350822 48.7144 0.220896 48.5 0.132537C48.2856 0.0441778 48.0556 -0.000861162 47.8237 1.24699e-05ZM47.8237 29.4064C47.4729 29.4051 47.1296 29.508 46.8374 29.7021C46.5452 29.8962 46.3172 30.1727 46.1823 30.4966C46.0475 30.8205 46.0118 31.1771 46.08 31.5212C46.1481 31.8654 46.3169 32.1816 46.5649 32.4296C46.813 32.6777 47.1292 32.8465 47.4733 32.9146C47.8175 32.9828 48.174 32.9471 48.4979 32.8123C48.8218 32.6774 49.0983 32.4494 49.2924 32.1571C49.4865 31.8649 49.5894 31.5216 49.5881 31.1708C49.5881 30.7028 49.4022 30.254 49.0713 29.9232C48.7405 29.5923 48.2916 29.4064 47.8237 29.4064ZM47.8237 58.8193C47.4748 58.8193 47.1337 58.9228 46.8435 59.1167C46.5534 59.3106 46.3273 59.5861 46.1938 59.9085C46.0602 60.2309 46.0253 60.5857 46.0933 60.9279C46.1614 61.2702 46.3295 61.5846 46.5762 61.8313C46.823 62.0781 47.1373 62.2461 47.4795 62.3142C47.8218 62.3823 48.1766 62.3473 48.4989 62.2138C48.8213 62.0802 49.0969 61.8541 49.2907 61.564C49.4846 61.2738 49.5881 60.9327 49.5881 60.5837C49.5889 60.3518 49.5439 60.1219 49.4555 59.9075C49.3672 59.693 49.2373 59.4982 49.0733 59.3342C48.9093 59.1702 48.7144 59.0402 48.5 58.9519C48.2856 58.8635 48.0556 58.8185 47.8237 58.8193ZM47.8237 88.2257C47.4732 88.2244 47.1302 88.3271 46.8381 88.521C46.546 88.7148 46.318 88.9909 46.183 89.3144C46.0479 89.6378 46.0119 89.9941 46.0795 90.3381C46.147 90.6821 46.3152 90.9983 46.5626 91.2466C46.81 91.4949 47.1255 91.6643 47.4692 91.7331C47.8129 91.802 48.1693 91.7673 48.4933 91.6335C48.8173 91.4996 49.0943 91.2727 49.2891 90.9813C49.484 90.6899 49.5881 90.3472 49.5881 89.9967C49.5889 89.7644 49.544 89.5343 49.4557 89.3195C49.3674 89.1046 49.2376 88.9093 49.0737 88.7448C48.9098 88.5803 48.715 88.4497 48.5005 88.3606C48.286 88.2715 48.056 88.2257 47.8237 88.2257ZM47.8237 117.639C47.4729 117.637 47.1296 117.74 46.8374 117.934C46.5452 118.128 46.3172 118.405 46.1823 118.729C46.0475 119.053 46.0118 119.409 46.08 119.754C46.1481 120.098 46.3169 120.414 46.5649 120.662C46.813 120.91 47.1292 121.079 47.4733 121.147C47.8175 121.215 48.174 121.179 48.4979 121.045C48.8218 120.91 49.0983 120.682 49.2924 120.389C49.4865 120.097 49.5894 119.754 49.5881 119.403C49.5881 118.935 49.4022 118.486 49.0713 118.155C48.7405 117.825 48.2916 117.639 47.8237 117.639ZM47.8237 147.052C47.4748 147.052 47.1337 147.155 46.8435 147.349C46.5534 147.543 46.3273 147.818 46.1938 148.141C46.0602 148.463 46.0253 148.818 46.0933 149.16C46.1614 149.503 46.3295 149.817 46.5762 150.064C46.823 150.31 47.1373 150.478 47.4795 150.546C47.8218 150.615 48.1766 150.58 48.4989 150.446C48.8213 150.313 49.0969 150.086 49.2907 149.796C49.4846 149.506 49.5881 149.165 49.5881 148.816C49.5889 148.584 49.5439 148.354 49.4555 148.14C49.3672 147.925 49.2373 147.73 49.0733 147.566C48.9093 147.402 48.7144 147.273 48.5 147.184C48.2856 147.096 48.0556 147.051 47.8237 147.052ZM47.8237 176.458C47.4732 176.457 47.1302 176.559 46.8381 176.753C46.546 176.947 46.318 177.223 46.183 177.547C46.0479 177.87 46.0119 178.226 46.0795 178.57C46.147 178.914 46.3152 179.231 46.5626 179.479C46.81 179.727 47.1255 179.897 47.4692 179.965C47.8129 180.034 48.1693 180 48.4933 179.866C48.8173 179.732 49.0943 179.505 49.2891 179.214C49.484 178.922 49.5881 178.58 49.5881 178.229C49.5889 177.997 49.544 177.767 49.4557 177.552C49.3674 177.337 49.2376 177.142 49.0737 176.977C48.9098 176.813 48.715 176.682 48.5005 176.593C48.286 176.504 48.056 176.458 47.8237 176.458ZM77.2356 1.24699e-05C76.8867 1.24699e-05 76.5456 0.103495 76.2555 0.297368C75.9653 0.491241 75.7392 0.766798 75.6057 1.0892C75.4721 1.4116 75.4372 1.76635 75.5052 2.10861C75.5733 2.45086 75.7413 2.76524 75.9881 3.012C76.2348 3.25875 76.5492 3.42679 76.8914 3.49487C77.2337 3.56295 77.5885 3.52801 77.9109 3.39446C78.2333 3.26092 78.5088 3.03478 78.7027 2.74463C78.8965 2.45448 79 2.11335 79 1.76439C79 1.29645 78.8141 0.847676 78.4832 0.51679C78.1524 0.185904 77.7036 1.24699e-05 77.2356 1.24699e-05ZM77.2356 29.4064C76.8848 29.4051 76.5415 29.508 76.2493 29.7021C75.957 29.8962 75.7291 30.1727 75.5942 30.4966C75.4594 30.8205 75.4237 31.1771 75.4919 31.5212C75.56 31.8654 75.7287 32.1816 75.9768 32.4296C76.2249 32.6777 76.5411 32.8465 76.8852 32.9146C77.2294 32.9828 77.586 32.9471 77.9098 32.8123C78.2337 32.6774 78.5102 32.4494 78.7043 32.1571C78.8983 31.8649 79.0013 31.5216 79 31.1708C78.9982 30.7033 78.8118 30.2556 78.4813 29.9251C78.1508 29.5946 77.703 29.4081 77.2356 29.4064ZM77.2356 58.8193C76.8867 58.8193 76.5456 58.9228 76.2555 59.1167C75.9653 59.3106 75.7392 59.5861 75.6057 59.9085C75.4721 60.2309 75.4372 60.5857 75.5052 60.9279C75.5733 61.2702 75.7413 61.5846 75.9881 61.8313C76.2348 62.0781 76.5492 62.2461 76.8914 62.3142C77.2337 62.3823 77.5885 62.3473 77.9109 62.2138C78.2333 62.0802 78.5088 61.8541 78.7027 61.564C78.8965 61.2738 79 60.9327 79 60.5837C79 60.352 78.9543 60.1226 78.8657 59.9085C78.777 59.6944 78.6471 59.5 78.4832 59.3361C78.3194 59.1723 78.1249 59.0423 77.9109 58.9536C77.6968 58.865 77.4673 58.8193 77.2356 58.8193ZM77.2356 88.2257C76.8851 88.2244 76.5421 88.3271 76.25 88.521C75.9579 88.7148 75.7299 88.9909 75.5949 89.3144C75.4598 89.6378 75.4238 89.9941 75.4914 90.3381C75.5589 90.6821 75.7271 90.9983 75.9745 91.2466C76.2219 91.4949 76.5374 91.6643 76.8811 91.7331C77.2248 91.802 77.5813 91.7673 77.9052 91.6335C78.2292 91.4996 78.5061 91.2727 78.701 90.9813C78.8959 90.6899 79 90.3472 79 89.9967C79 89.5281 78.8143 89.0787 78.4836 88.7467C78.153 88.4148 77.7042 88.2274 77.2356 88.2257ZM77.2356 117.639C76.8848 117.637 76.5415 117.74 76.2493 117.934C75.957 118.128 75.7291 118.405 75.5942 118.729C75.4594 119.053 75.4237 119.409 75.4919 119.754C75.56 120.098 75.7287 120.414 75.9768 120.662C76.2249 120.91 76.5411 121.079 76.8852 121.147C77.2294 121.215 77.586 121.179 77.9098 121.045C78.2337 120.91 78.5102 120.682 78.7043 120.389C78.8983 120.097 79.0013 119.754 79 119.403C78.9982 118.936 78.8118 118.488 78.4813 118.157C78.1508 117.827 77.703 117.64 77.2356 117.639ZM77.2356 147.052C76.8867 147.052 76.5456 147.155 76.2555 147.349C75.9653 147.543 75.7392 147.818 75.6057 148.141C75.4721 148.463 75.4372 148.818 75.5052 149.16C75.5733 149.503 75.7413 149.817 75.9881 150.064C76.2348 150.31 76.5492 150.478 76.8914 150.546C77.2337 150.615 77.5885 150.58 77.9109 150.446C78.2333 150.313 78.5088 150.086 78.7027 149.796C78.8965 149.506 79 149.165 79 148.816C79 148.348 78.8141 147.899 78.4832 147.568C78.1524 147.238 77.7036 147.052 77.2356 147.052ZM77.2356 176.458C76.8851 176.457 76.5421 176.559 76.25 176.753C75.9579 176.947 75.7299 177.223 75.5949 177.547C75.4598 177.87 75.4238 178.226 75.4914 178.57C75.5589 178.914 75.7271 179.231 75.9745 179.479C76.2219 179.727 76.5374 179.897 76.8811 179.965C77.2248 180.034 77.5813 180 77.9052 179.866C78.2292 179.732 78.5061 179.505 78.701 179.214C78.8959 178.922 79 178.58 79 178.229C79 177.76 78.8143 177.311 78.4836 176.979C78.153 176.647 77.7042 176.46 77.2356 176.458Z" fill="#FC440F"/>
</svg>
