<svg width="241" height="320" viewBox="0 0 241 320" fill="none" xmlns="http://www.w3.org/2000/svg">
<path d="M57.5844 271.111L44.8499 257.899L31.6412 270.649L44.3757 283.861L57.5844 271.111Z" fill="#0A0B0D"/>
<path d="M44.3747 285.925L29.6863 270.611L44.9968 255.904L59.6851 271.219L44.3747 285.925ZM33.8057 270.562L44.3824 281.613L55.4307 271.024L44.8541 259.972L33.8057 270.562Z" fill="white"/>
<path d="M210.492 41.8549L221.684 79.802C221.684 79.802 239.327 69.6682 233.561 53.8505C227.834 37.8951 210.492 41.8549 210.492 41.8549Z" fill="#0A0B0D"/>
<path d="M221.073 81.4152L209.25 41.0509L210.361 40.7738C210.537 40.6752 228.735 36.8123 234.711 53.4357C240.688 70.0592 222.478 80.6265 222.302 80.7251L221.073 81.4152ZM211.87 42.6981L222.295 78.1889C225.966 75.6665 237.16 66.9584 232.586 54.1665C228.013 41.3747 215.707 42.1611 211.87 42.6981Z" fill="white"/>
<path d="M72.816 162.545C93.7447 168.559 115.644 156.268 121.73 135.091C127.816 113.913 115.783 91.8703 94.8541 85.856C73.9254 79.8417 52.0257 92.1336 45.94 113.311C39.8543 134.488 51.8873 156.53 72.816 162.545Z" fill="white" fill-opacity="0.1"/>
<path d="M90.6434 97.0119L79.6063 65.6939L115.558 71.9158L90.6434 97.0119Z" fill="#825AFF"/>
<path d="M116.986 71.4064L90.3281 98.281L78.6186 64.7665L116.986 71.4064ZM90.8659 95.7264L114.037 72.4091L80.594 66.6213L90.8659 95.7264Z" fill="#825AFF"/>
<path d="M121.764 150.4C121.356 150.283 121.027 149.89 120.97 149.576L117.914 128.426C117.8 127.797 118.231 127.324 118.854 127.205C119.478 127.086 119.943 127.518 120.057 128.147L123.112 149.297C123.226 149.926 122.796 150.399 122.172 150.518C122.076 150.341 121.9 150.44 121.764 150.4Z" fill="white"/>
<path d="M109.797 141.296C109.388 141.179 109.059 140.787 109.002 140.472C108.888 139.843 109.319 139.371 109.942 139.252L130.902 136.033C131.525 135.914 131.99 136.346 132.104 136.975C132.218 137.604 131.788 138.076 131.164 138.195L110.205 141.414C110.069 141.375 109.933 141.336 109.797 141.296Z" fill="white"/>
</svg>
